<svg width="40" height="41" viewBox="0 0 40 41" fill="none" xmlns="http://www.w3.org/2000/svg">
<path d="M32.8105 6.1001H7.1897C6.76811 6.1001 6.36379 6.26757 6.06568 6.56568C5.76757 6.86379 5.6001 7.26811 5.6001 7.6897V33.3109C5.6002 33.7324 5.76773 34.1366 6.06582 34.4347C6.36392 34.7327 6.76818 34.9001 7.1897 34.9001H20.9829V23.7473H17.2297V19.4009H20.9829V16.1953C20.9829 12.4753 23.2549 10.4501 26.5733 10.4501C28.1629 10.4501 29.5289 10.5681 29.9273 10.6213V14.5089L27.6257 14.5101C25.8209 14.5101 25.4717 15.3677 25.4717 16.6261V19.4013H29.7757L29.2153 23.7477H25.4717V34.9001H32.8109C33.2324 34.9 33.6366 34.7325 33.9347 34.4344C34.2327 34.1363 34.4001 33.732 34.4001 33.3105V7.6897C34.4001 7.26811 34.2326 6.86379 33.9345 6.56568C33.6364 6.26757 33.2321 6.1001 32.8105 6.1001Z" fill="#FAFAFB"/>
</svg>
