<svg width="40" height="41" viewBox="0 0 40 41" fill="none" xmlns="http://www.w3.org/2000/svg">
<g clip-path="url(#clip0_122_143)">
<path d="M19.9609 0.65625C25.3516 0.65625 26.0156 0.695312 28.125 0.773438C30.1953 0.851562 31.6406 1.20312 32.9297 1.71094C34.2578 2.21875 35.3516 2.88281 36.4453 3.97656C37.5391 5.07031 38.2031 6.16406 38.7109 7.49219C39.2188 8.78125 39.5703 10.2266 39.6484 12.2969C39.7266 14.4062 39.7656 15.0703 39.7656 20.4609C39.7656 25.8516 39.7266 26.5156 39.6484 28.625C39.5703 30.6953 39.2188 32.1406 38.7109 33.4297C38.2031 34.7578 37.5391 35.8516 36.4453 36.9453C35.3516 38.0391 34.2578 38.7031 32.9297 39.2109C31.6406 39.7188 30.1953 40.0703 28.125 40.1484C26.0156 40.2266 25.3516 40.2656 19.9609 40.2656C14.5703 40.2656 13.9062 40.2266 11.7969 40.1484C9.72656 40.0703 8.28125 39.7188 6.99219 39.2109C5.66406 38.7031 4.57031 38.0391 3.47656 36.9453C2.38281 35.8516 1.71875 34.7578 1.21094 33.4297C0.703125 32.1406 0.351562 30.6953 0.273438 28.625C0.195312 26.5156 0.15625 25.8516 0.15625 20.4609C0.15625 15.0703 0.195312 14.4062 0.273438 12.2969C0.351562 10.2266 0.703125 8.78125 1.21094 7.49219C1.71875 6.16406 2.38281 5.07031 3.47656 3.97656C4.57031 2.88281 5.66406 2.21875 6.99219 1.71094C8.28125 1.20312 9.72656 0.851562 11.7969 0.773438C13.9062 0.695312 14.5703 0.65625 19.9609 0.65625ZM19.9609 3.23438C14.3359 3.23438 13.6719 3.27344 11.4844 3.35156C9.45312 3.42969 8.32031 3.82031 7.57812 4.09375C5.66406 4.875 4.375 6.16406 3.59375 8.07812C3.32031 8.82031 2.92969 9.95312 2.85156 11.9844C2.77344 14.1719 2.73438 14.8359 2.73438 20.4609C2.73438 26.0859 2.77344 26.75 2.85156 28.9375C2.92969 30.9688 3.32031 32.1016 3.59375 32.8438C4.375 34.7578 5.66406 36.0469 7.57812 36.8281C8.32031 37.1016 9.45312 37.4922 11.4844 37.5703C13.6719 37.6484 14.3359 37.6875 19.9609 37.6875C25.5859 37.6875 26.25 37.6484 28.4375 37.5703C30.4688 37.4922 31.6016 37.1016 32.3438 36.8281C34.2578 36.0469 35.5469 34.7578 36.3281 32.8438C36.6016 32.1016 36.9922 30.9688 37.0703 28.9375C37.1484 26.75 37.1875 26.0859 37.1875 20.4609C37.1875 14.8359 37.1484 14.1719 37.0703 11.9844C36.9922 9.95312 36.6016 8.82031 36.3281 8.07812C35.5469 6.16406 34.2578 4.875 32.3438 4.09375C31.6016 3.82031 30.4688 3.42969 28.4375 3.35156C26.25 3.27344 25.5859 3.23438 19.9609 3.23438ZM19.9609 28.3906C24.3359 28.3906 27.8906 24.8359 27.8906 20.4609C27.8906 16.0859 24.3359 12.5312 19.9609 12.5312C15.5859 12.5312 12.0312 16.0859 12.0312 20.4609C12.0312 24.8359 15.5859 28.3906 19.9609 28.3906ZM19.9609 10.3047C25.5859 10.3047 30.1172 14.8359 30.1172 20.4609C30.1172 26.0859 25.5859 30.6172 19.9609 30.6172C14.3359 30.6172 9.80469 26.0859 9.80469 20.4609C9.80469 14.8359 14.3359 10.3047 19.9609 10.3047ZM32.9297 9.91406C32.9297 11.2422 31.8359 12.2578 30.5078 12.2578C29.1797 12.2578 28.1641 11.2422 28.1641 9.91406C28.1641 8.58594 29.1797 7.49219 30.5078 7.49219C31.8359 7.49219 32.9297 8.58594 32.9297 9.91406Z" fill="#FAFAFB"/>
</g>
<defs>
<clipPath id="clip0_122_143">
<rect width="40" height="40" fill="white" transform="translate(0 0.5)"/>
</clipPath>
</defs>
</svg>
