<svg width="40" height="41" viewBox="0 0 40 41" fill="none" xmlns="http://www.w3.org/2000/svg">
<path d="M34.7008 3H5.49062C3.89453 3 2.5 4.14844 2.5 5.72578V35.0008C2.5 36.5867 3.89453 38 5.49062 38H34.6922C36.2969 38 37.5 36.5773 37.5 35.0008V5.72578C37.5094 4.14844 36.2969 3 34.7008 3ZM13.3492 32.1742H8.33516V16.5844H13.3492V32.1742ZM11.0156 14.2141H10.9797C9.375 14.2141 8.33594 13.0195 8.33594 11.5242C8.33594 10.0016 9.40234 8.83516 11.043 8.83516C12.6836 8.83516 13.6875 9.99297 13.7234 11.5242C13.7227 13.0195 12.6836 14.2141 11.0156 14.2141ZM31.6742 32.1742H26.6602V23.65C26.6602 21.6078 25.9305 20.2125 24.1164 20.2125C22.7305 20.2125 21.9102 21.15 21.5453 22.0633C21.4086 22.3914 21.3719 22.8383 21.3719 23.2945V32.1742H16.3578V16.5844H21.3719V18.7539C22.1016 17.7148 23.2414 16.2195 25.8937 16.2195C29.1852 16.2195 31.675 18.3891 31.675 23.0664L31.6742 32.1742Z" fill="#FAFAFB"/>
</svg>
