<svg width="49" height="49" viewBox="0 0 49 49" fill="none" xmlns="http://www.w3.org/2000/svg">
<path d="M34.577 8.17238C34.0376 8.17238 33.5203 7.95809 33.1388 7.57665C32.7574 7.19522 32.5431 6.67787 32.5431 6.13844C32.5431 5.599 32.7574 5.08166 33.1388 4.70022C33.5203 4.31878 34.0376 4.10449 34.577 4.10449H42.7128C43.2523 4.10449 43.7696 4.31878 44.151 4.70022C44.5325 5.08166 44.7468 5.599 44.7468 6.13844V14.2742C44.7468 14.8137 44.5325 15.331 44.151 15.7124C43.7696 16.0939 43.2523 16.3082 42.7128 16.3082C42.1734 16.3082 41.656 16.0939 41.2746 15.7124C40.8932 15.331 40.6789 14.8137 40.6789 14.2742V11.0484L28.8962 22.831C28.5148 23.2123 27.9976 23.4265 27.4582 23.4265C26.9189 23.4265 26.4017 23.2123 26.0202 22.831L20.3394 17.1502L9.57375 27.9159C9.19014 28.2864 8.67637 28.4914 8.14307 28.4868C7.60978 28.4821 7.09964 28.2682 6.72253 27.8911C6.34542 27.514 6.13151 27.0039 6.12688 26.4706C6.12224 25.9373 6.32725 25.4235 6.69775 25.0399L18.9014 12.8362C19.2828 12.4549 19.8001 12.2407 20.3394 12.2407C20.8788 12.2407 21.396 12.4549 21.7774 12.8362L27.4582 18.517L37.8029 8.17238H34.577ZM10.1697 36.6476V42.7495C10.1697 43.2889 9.95541 43.8062 9.57397 44.1877C9.19253 44.5691 8.67519 44.7834 8.13575 44.7834C7.59632 44.7834 7.07897 44.5691 6.69754 44.1877C6.3161 43.8062 6.10181 43.2889 6.10181 42.7495V36.6476C6.10181 36.1082 6.3161 35.5908 6.69754 35.2094C7.07897 34.828 7.59632 34.6137 8.13575 34.6137C8.67519 34.6137 9.19253 34.828 9.57397 35.2094C9.95541 35.5908 10.1697 36.1082 10.1697 36.6476ZM20.3394 28.5118C20.3394 27.9724 20.1251 27.4551 19.7437 27.0736C19.3623 26.6922 18.8449 26.4779 18.3055 26.4779C17.766 26.4779 17.2487 26.6922 16.8673 27.0736C16.4858 27.4551 16.2715 27.9724 16.2715 28.5118V42.7495C16.2715 43.2889 16.4858 43.8062 16.8673 44.1877C17.2487 44.5691 17.766 44.7834 18.3055 44.7834C18.8449 44.7834 19.3623 44.5691 19.7437 44.1877C20.1251 43.8062 20.3394 43.2889 20.3394 42.7495V28.5118ZM28.4752 30.5458C29.0146 30.5458 29.532 30.7601 29.9134 31.1415C30.2949 31.5229 30.5092 32.0403 30.5092 32.5797V42.7495C30.5092 43.2889 30.2949 43.8062 29.9134 44.1877C29.532 44.5691 29.0146 44.7834 28.4752 44.7834C27.9358 44.7834 27.4184 44.5691 27.037 44.1877C26.6556 43.8062 26.4413 43.2889 26.4413 42.7495V32.5797C26.4413 32.0403 26.6556 31.5229 27.037 31.1415C27.4184 30.7601 27.9358 30.5458 28.4752 30.5458ZM40.6789 22.41C40.6789 21.8706 40.4646 21.3532 40.0831 20.9718C39.7017 20.5903 39.1844 20.3761 38.6449 20.3761C38.1055 20.3761 37.5882 20.5903 37.2067 20.9718C36.8253 21.3532 36.611 21.8706 36.611 22.41V42.7495C36.611 43.2889 36.8253 43.8062 37.2067 44.1877C37.5882 44.5691 38.1055 44.7834 38.6449 44.7834C39.1844 44.7834 39.7017 44.5691 40.0831 44.1877C40.4646 43.8062 40.6789 43.2889 40.6789 42.7495V22.41Z" fill="#EDEDED"/>
</svg>
