<svg width="49" height="50" viewBox="0 0 49 50" fill="none" xmlns="http://www.w3.org/2000/svg">
<path d="M6.10181 24.9432H8.13575M24.4073 6.6377V8.67164M40.6789 24.9432H42.7128M11.3901 11.926L12.8138 13.3497M37.4246 11.926L36.0008 13.3497M19.7292 35.1129H29.0854M18.3055 33.079C16.5979 31.7983 15.3366 30.0128 14.7002 27.9755C14.0638 25.9381 14.0845 23.7522 14.7595 21.7273C15.4344 19.7023 16.7294 17.9411 18.461 16.6931C20.1925 15.4451 22.2729 14.7735 24.4073 14.7735C26.5418 14.7735 28.6221 15.4451 30.3537 16.6931C32.0852 17.9411 33.3802 19.7023 34.0552 21.7273C34.7301 23.7522 34.7509 25.9381 34.1145 27.9755C33.478 30.0128 32.2167 31.7983 30.5092 33.079C29.715 33.8651 29.1171 34.8271 28.7638 35.8871C28.4104 36.9471 28.3116 38.0755 28.4752 39.1808C28.4752 40.2597 28.0466 41.2944 27.2837 42.0573C26.5209 42.8201 25.4862 43.2487 24.4073 43.2487C23.3284 43.2487 22.2938 42.8201 21.5309 42.0573C20.768 41.2944 20.3394 40.2597 20.3394 39.1808C20.5031 38.0755 20.4042 36.9471 20.0509 35.8871C19.6975 34.8271 19.0996 33.8651 18.3055 33.079Z" stroke="#EDEDED" stroke-width="2.44073" stroke-linecap="round" stroke-linejoin="round"/>
</svg>
