<svg width="62" height="62" viewBox="0 0 62 62" fill="none" xmlns="http://www.w3.org/2000/svg">
<path fill-rule="evenodd" clip-rule="evenodd" d="M23.8353 0C23.0767 0 22.3492 0.301345 21.8128 0.837744C21.2764 1.37414 20.975 2.10165 20.975 2.86024C20.975 3.61882 21.2764 4.34633 21.8128 4.88273C22.3492 5.41913 23.0767 5.72047 23.8353 5.72047H37.1831C37.9416 5.72047 38.6691 5.41913 39.2055 4.88273C39.7419 4.34633 40.0433 3.61882 40.0433 2.86024C40.0433 2.10165 39.7419 1.37414 39.2055 0.837744C38.6691 0.301345 37.9416 0 37.1831 0L23.8353 0ZM49.5774 34.3228C49.5774 39.38 47.5684 44.2301 43.9925 47.8061C40.4165 51.3821 35.5664 53.3911 30.5092 53.3911C25.452 53.3911 20.6019 51.3821 17.0259 47.8061C13.4499 44.2301 11.4409 39.38 11.4409 34.3228C11.4409 29.2656 13.4499 24.4155 17.0259 20.8395C20.6019 17.2636 25.452 15.2546 30.5092 15.2546C35.5664 15.2546 40.4165 17.2636 43.9925 20.8395C47.5684 24.4155 49.5774 29.2656 49.5774 34.3228ZM55.2979 34.3228C55.2979 40.8972 52.6862 47.2023 48.0374 51.8511C43.3886 56.4999 37.0835 59.1115 30.5092 59.1115C23.9348 59.1115 17.6297 56.4999 12.9809 51.8511C8.33212 47.2023 5.72046 40.8972 5.72046 34.3228C5.72046 27.7485 8.33212 21.4433 12.9809 16.7946C17.6297 12.1458 23.9348 9.53412 30.5092 9.53412C37.0835 9.53412 43.3886 12.1458 48.0374 16.7946C52.6862 21.4433 55.2979 27.7485 55.2979 34.3228ZM46.6028 6.55947C47.1391 6.02385 47.866 5.72299 48.624 5.72299C49.382 5.72299 50.1089 6.02385 50.6452 6.55947L56.3657 12.2799C56.8709 12.8222 57.146 13.5393 57.1329 14.2803C57.1198 15.0213 56.8197 15.7283 56.2956 16.2523C55.7716 16.7764 55.0646 17.0765 54.3236 17.0896C53.5826 17.1027 52.8654 16.8276 52.3232 16.3224L46.6028 10.6019C46.0671 10.0656 45.7663 9.33867 45.7663 8.58071C45.7663 7.82274 46.0671 7.09577 46.6028 6.55947ZM33.3694 22.8819C33.3694 22.1233 33.0681 21.3958 32.5317 20.8594C31.9953 20.323 31.2678 20.0217 30.5092 20.0217C29.7506 20.0217 29.0231 20.323 28.4867 20.8594C27.9503 21.3958 27.6489 22.1233 27.6489 22.8819V34.3228C27.6489 34.7669 27.7523 35.2048 27.9509 35.602C28.1495 35.9991 28.4378 36.3446 28.793 36.611L33.8766 40.4247C34.4835 40.8798 35.2463 41.0752 35.9973 40.968C36.3691 40.9148 36.7268 40.789 37.05 40.5976C37.3732 40.4063 37.6556 40.1531 37.8809 39.8526C38.1063 39.5521 38.2703 39.2102 38.3635 38.8463C38.4567 38.4825 38.4774 38.1038 38.4243 37.732C38.3711 37.3601 38.2453 37.0024 38.0539 36.6792C37.8625 36.356 37.6094 36.0737 37.3089 35.8483L33.3694 32.8927V22.8819Z" fill="#EDEDED"/>
</svg>
