<svg width="49" height="50" viewBox="0 0 49 50" fill="none" xmlns="http://www.w3.org/2000/svg">
<path d="M45.7637 5.91194L43.6052 3.75342L26.3797 20.9804C26.234 21.1211 26.1178 21.2895 26.0378 21.4756C25.9579 21.6617 25.9158 21.8619 25.914 22.0644C25.9123 22.267 25.9509 22.4678 26.0276 22.6553C26.1043 22.8428 26.2175 23.0131 26.3608 23.1563C26.504 23.2996 26.6743 23.4128 26.8618 23.4895C27.0493 23.5662 27.2501 23.6048 27.4527 23.6031C27.6552 23.6013 27.8554 23.5592 28.0415 23.4793C28.2276 23.3993 28.396 23.2831 28.5367 23.1374L33.8071 17.867C34.5724 19.0133 35.0115 20.3463 35.0774 21.723C35.1433 23.0998 34.8336 24.4686 34.1813 25.6828C33.529 26.8971 32.5588 27.9111 31.3746 28.6163C30.1903 29.3215 28.8365 29.6913 27.4582 29.6862C27.1483 29.6796 26.839 29.6542 26.5322 29.6099C25.2877 26.6127 22.9059 24.231 19.9087 22.9864C19.7516 21.9119 19.8304 20.816 20.1398 19.7751C20.4492 18.7342 20.9818 17.7731 21.7003 16.9589C22.4188 16.1447 23.3062 15.4968 24.3006 15.0603C25.2949 14.6239 26.3725 14.4093 27.4582 14.4316V11.3807C24.6274 11.3847 21.9137 12.5111 19.912 14.5127C17.9103 16.5144 16.784 19.2281 16.78 22.0589C16.78 22.094 16.7891 22.1306 16.7891 22.1657C16.2803 22.0979 15.7678 22.0622 15.2545 22.0589C14.231 22.0634 13.2121 22.1967 12.2219 22.4555C12.2173 22.3228 12.2036 22.1932 12.2036 22.0589C12.2076 18.0144 13.8161 14.1367 16.676 11.2768C19.5359 8.41685 23.4137 6.80837 27.4582 6.80434V3.75342C22.605 3.75907 17.9522 5.6895 14.5205 9.12122C11.0888 12.5529 9.15833 17.2057 9.15268 22.0589C9.15369 22.6 9.17759 23.1359 9.22437 23.6668C7.59164 24.5943 6.19515 25.8863 5.14377 27.4421C4.09239 28.998 3.41452 30.7756 3.16299 32.6365C2.91147 34.4974 3.09309 36.3912 3.6937 38.1703C4.2943 39.9494 5.29767 41.5659 6.62559 42.8935C7.9535 44.2212 9.57009 45.2243 11.3493 45.8245C13.1286 46.4248 15.0224 46.6061 16.8833 46.3542C18.7441 46.1024 20.5216 45.4242 22.0772 44.3725C23.6329 43.3208 24.9247 41.9241 25.8519 40.2912C26.3858 40.338 26.9212 40.3624 27.4582 40.3644C30.9492 40.3691 34.3685 39.3743 37.312 37.4974C40.2556 35.6206 42.6002 32.9403 44.0689 29.7732C45.5375 26.6062 46.0687 23.0849 45.5997 19.6256C45.1307 16.1663 43.6811 12.9135 41.4222 10.2519L45.7637 5.91194ZM24.27 32.7371H21.2892C21.0921 30.4369 20.4617 28.1947 19.4312 26.1288C20.6948 26.7798 21.7898 27.7157 22.6296 28.8626C23.4693 30.0095 24.0309 31.3359 24.27 32.7371ZM6.23905 35.7881H9.2198C9.41669 38.0888 10.0471 40.3315 11.0778 42.3979C9.81399 41.7467 8.71893 40.8106 7.87915 39.6634C7.03936 38.5163 6.47787 37.1895 6.23905 35.7881ZM9.21827 32.7371H6.23905C6.47793 31.3361 7.03929 30.0097 7.87879 28.8629C8.71829 27.716 9.81294 26.78 11.0763 26.1288C10.0458 28.1947 9.41536 30.4369 9.21827 32.7371ZM15.2545 43.394C13.5928 41.1753 12.5671 38.5458 12.2875 35.7881H18.2215C17.9419 38.5458 16.9162 41.1753 15.2545 43.394ZM12.2875 32.7371C12.5674 29.9799 13.5931 27.3509 15.2545 25.1327C16.9159 27.3509 17.9417 29.9799 18.2215 32.7371H12.2875ZM19.4312 42.3979C20.4624 40.3316 21.0934 38.0889 21.2908 35.7881H24.27C24.0312 37.1895 23.4697 38.5163 22.6299 39.6634C21.7901 40.8106 20.695 41.7467 19.4312 42.3979ZM42.7128 22.0589C42.7087 26.1035 41.1003 29.9812 38.2403 32.8411C35.3804 35.701 31.5027 37.3095 27.4582 37.3135C27.3255 37.3135 27.1943 37.2983 27.0616 37.2952C27.4607 35.8072 27.5592 34.2545 27.3514 32.728C27.388 32.728 27.4231 32.7371 27.4582 32.7371C29.4396 32.7366 31.3818 32.1849 33.0674 31.1436C34.7531 30.1022 36.1159 28.6125 37.0032 26.8408C37.8905 25.0692 38.2674 23.0857 38.0917 21.1121C37.916 19.1385 37.1947 17.2527 36.0084 15.6657L39.2607 12.4134C41.4944 15.1314 42.7147 18.5409 42.7128 22.0589Z" fill="#EDEDED"/>
</svg>
