<svg width="30" height="36" viewBox="0 0 30 36" fill="none" xmlns="http://www.w3.org/2000/svg">
<path d="M27.9217 3.265C28.0658 3.10019 28.176 2.90861 28.2461 2.70119C28.3162 2.49377 28.3448 2.27458 28.3301 2.05613C28.3155 1.83768 28.258 1.62425 28.1609 1.42803C28.0638 1.2318 27.929 1.05663 27.7642 0.9125C27.5994 0.768374 27.4078 0.658121 27.2004 0.588036C26.9929 0.517951 26.7737 0.489406 26.5553 0.504031C26.3368 0.518656 26.1234 0.576166 25.9272 0.673275C25.731 0.770384 25.5558 0.905191 25.4117 1.07L16.895 10.8033L9.66667 1.16667C9.51142 0.959673 9.31012 0.791667 9.07869 0.675954C8.84726 0.560242 8.59208 0.5 8.33333 0.5H1.66667C1.35715 0.5 1.05374 0.586191 0.790449 0.748915C0.527156 0.91164 0.314377 1.14447 0.175955 1.42131C0.0375338 1.69815 -0.0210613 2.00807 0.00673528 2.31634C0.0345319 2.62461 0.147622 2.91905 0.333334 3.16667L11.0617 17.47L2.07833 27.7367C1.93421 27.9015 1.82396 28.0931 1.75387 28.3005C1.68378 28.5079 1.65524 28.7271 1.66987 28.9455C1.68449 29.164 1.742 29.3774 1.83911 29.5736C1.93622 29.7699 2.07102 29.945 2.23583 30.0892C2.40064 30.2333 2.59223 30.3435 2.79964 30.4136C3.00706 30.4837 3.22625 30.5123 3.4447 30.4976C3.66315 30.483 3.87658 30.4255 4.07281 30.3284C4.26903 30.2313 4.44421 30.0965 4.58833 29.9317L13.105 20.1967L20.3333 29.8333C20.4886 30.0403 20.6899 30.2083 20.9213 30.324C21.1527 30.4398 21.4079 30.5 21.6667 30.5H28.3333C28.6429 30.5 28.9463 30.4138 29.2096 30.2511C29.4728 30.0884 29.6856 29.8555 29.824 29.5787C29.9625 29.3018 30.0211 28.9919 29.9933 28.6837C29.9655 28.3754 29.8524 28.0809 29.6667 27.8333L18.9383 13.53L27.9217 3.265Z" fill="#FAFAFB"/>
</svg>
