<svg width="41" height="48" viewBox="0 0 41 48" fill="none" xmlns="http://www.w3.org/2000/svg">
<path d="M20.4073 0.764648L40.7468 7.88346V24.2771C40.7468 32.6712 35.5948 38.5391 30.7886 42.1819C27.8894 44.3612 24.7077 46.1368 21.3307 47.46L21.1538 47.5271L21.1029 47.5454L21.0887 47.5495L21.0826 47.5515C21.0806 47.5515 21.0785 47.5515 20.4073 45.6335L19.7341 47.5535L19.726 47.5495L19.7117 47.5454L19.6609 47.5251L19.4839 47.46C18.5246 47.089 17.5814 46.6778 16.6567 46.2274C14.3225 45.0935 12.1022 43.7388 10.0261 42.1819C5.22189 38.5391 0.0678711 32.6712 0.0678711 24.2771V7.88346L20.4073 0.764648ZM20.4073 45.6335L19.7341 47.5535L20.4073 47.7895L21.0806 47.5535L20.4073 45.6335ZM20.4073 43.4531L20.4256 43.445C23.2399 42.2817 25.8962 40.768 28.3316 38.9398C32.6801 35.6468 36.6789 30.8325 36.6789 24.2771V10.7717L20.4073 5.07661L4.13576 10.7717V24.2771C4.13576 30.8325 8.1345 35.6427 12.4831 38.9418C14.9238 40.7735 17.5863 42.2893 20.4073 43.4531ZM32.7574 16.8389L18.3754 31.2209L9.74538 22.593L12.6234 19.7149L18.3734 25.469L29.8794 13.9629L32.7574 16.8389Z" fill="#EDEDED"/>
</svg>
